<svg width="300" height="300" viewBox="0 0 300 300" fill="none" xmlns="http://www.w3.org/2000/svg">
<g clip-path="url(#clip0_70_157)">
<mask id="mask0_70_157" style="mask-type:luminance" maskUnits="userSpaceOnUse" x="-11" y="-26" width="345" height="359">
<path d="M333.14 -25.4645H-10.2583V332.656H333.14V-25.4645Z" fill="white"/>
</mask>
<g mask="url(#mask0_70_157)">
<path d="M118.538 129.164H31.9668C31.4873 129.165 31.0125 129.033 30.5701 128.776C30.1278 128.518 29.7269 128.141 29.3909 127.665C29.0549 127.19 28.7906 126.625 28.6135 126.006C28.4364 125.386 28.3501 124.724 28.3596 124.057L29.0922 57.5547C29.109 56.1963 29.5077 54.9011 30.203 53.9466C30.8983 52.9921 31.8348 52.4543 32.8119 52.4484H119.383C119.862 52.4471 120.337 52.579 120.779 52.8362C121.222 53.0935 121.623 53.4711 121.959 53.9467C122.295 54.4223 122.559 54.9865 122.736 55.6061C122.913 56.2256 123 56.8881 122.99 57.5547L122.257 124.057C122.241 125.416 121.842 126.711 121.147 127.665C120.451 128.62 119.515 129.158 118.538 129.164Z" fill="black"/>
<mask id="mask1_70_157" style="mask-type:luminance" maskUnits="userSpaceOnUse" x="28" y="52" width="95" height="78">
<path d="M118.538 129.164H31.9668C31.4873 129.165 31.0125 129.033 30.5701 128.776C30.1278 128.518 29.7269 128.141 29.3909 127.665C29.0549 127.19 28.7906 126.625 28.6135 126.006C28.4364 125.386 28.3501 124.724 28.3596 124.057L29.0922 57.5547C29.109 56.1963 29.5077 54.9011 30.203 53.9466C30.8983 52.9921 31.8348 52.4543 32.8119 52.4484H119.383C119.862 52.4471 120.337 52.579 120.779 52.8362C121.222 53.0935 121.623 53.4711 121.959 53.9467C122.295 54.4223 122.559 54.9865 122.736 55.6061C122.913 56.2256 123 56.8881 122.99 57.5547L122.257 124.057C122.241 125.416 121.842 126.711 121.147 127.665C120.451 128.62 119.515 129.158 118.538 129.164Z" fill="white"/>
</mask>
<g mask="url(#mask1_70_157)">
<path d="M18.1586 146.841L132.075 41.5822L136.725 135.921L0 151.888" fill="black"/>
<path d="M87.8164 51.248C85.4701 55.5588 126.613 56.0864 126.613 56.0864L106.081 41.7806" fill="#00554B"/>
</g>
<path d="M101.958 81.6749C99.6191 80.6467 83.4791 84.7621 85.4146 77.6702C86.56 73.3622 95.0888 76.4386 100.79 75.5864C103.112 74.3884 106.444 79.7999 101.958 81.6749Z" fill="white"/>
<path opacity="0.34" d="M110.725 106.024C109.245 104.783 77.5028 110.133 86.5502 100.093C87.993 99.1568 107.376 100.359 110.638 99.9361C112.177 99.1788 114.759 104.824 110.725 106.024Z" fill="white"/>
<path opacity="0.34" d="M97.3138 93.8497C94.9978 93.0046 83.9129 96.578 85.2805 89.8447C86.2376 85.7784 93.3218 88.4751 97.0378 87.7615C99.1294 86.9915 101.131 92.7975 97.3138 93.8497Z" fill="white"/>
<path d="M55.8218 69.6236L55.9014 62.3983C44.6276 62.3983 35.3482 75.1168 35.1753 90.806H40.3673C40.4962 79.1073 47.4154 69.6236 55.8218 69.6236Z" fill="white"/>
<path d="M40.3673 90.806H35.1753C35.0795 98.0628 37.0216 105.086 40.5893 110.384L44.4043 105.404C41.744 101.454 40.2959 96.217 40.3673 90.806Z" fill="white"/>
<path opacity="0.34" d="M70.588 71.2283C68.7082 68.4316 66.4338 66.2039 63.9069 64.6846C61.38 63.1653 58.6549 62.387 55.9019 62.3982L55.8223 69.6236C63.9706 69.6282 70.9314 78.9102 70.8101 90.8059H76.0021C76.0979 83.5492 74.1557 76.5263 70.588 71.2283Z" fill="white"/>
<path d="M70.8097 90.806C70.4331 110.815 53.1436 118.509 44.4041 105.404C44.3637 105.361 40.741 110.255 40.5894 110.384C53.7047 129.192 75.5793 115.839 76.0017 90.806H70.8097Z" fill="white"/>
<path opacity="0.34" d="M61.743 90.806C59.9879 90.3702 48.6508 91.912 47.5765 89.7267C43.3823 80.3648 56.2206 84.1417 61.3254 83.4321C64.0775 82.5018 66.3327 89.6092 61.743 90.806Z" fill="white"/>
<path opacity="0.34" d="M65.5567 97.7536C64.5029 96.9575 43.4042 99.6767 44.2654 96.0525C44.5407 92.8438 50.6806 94.8939 57.2169 94.3483C62.7883 94.3651 69.6654 93.4103 65.5567 97.7536Z" fill="white"/>
<path d="M290.65 129.164H205.579C203.44 129.164 201.707 131.574 201.707 134.547V210.256C201.707 213.23 203.44 215.64 205.579 215.64H290.65C292.788 215.64 294.522 213.23 294.522 210.256V134.547C294.522 131.574 292.788 129.164 290.65 129.164Z" fill="#EBF5FE"/>
<mask id="mask2_70_157" style="mask-type:luminance" maskUnits="userSpaceOnUse" x="201" y="129" width="94" height="87">
<path d="M290.65 129.164H205.579C203.44 129.164 201.707 131.574 201.707 134.547V210.256C201.707 213.23 203.44 215.64 205.579 215.64H290.65C292.788 215.64 294.522 213.23 294.522 210.256V134.547C294.522 131.574 292.788 129.164 290.65 129.164Z" fill="white"/>
</mask>
<g mask="url(#mask2_70_157)">
<path d="M199.278 213.33C208.599 212.306 257.656 212.835 254.222 215.64C250.788 218.445 190.938 223.561 190.938 223.561" fill="#00554B"/>
</g>
<path d="M242.576 149.247C242.549 149.238 218.284 149.254 213.688 149.247C211.091 150.308 208.488 143.613 213.024 142.385C213.689 142.386 219.406 142.385 225.702 142.385C236.694 142.144 251.22 141.1 242.576 149.247Z" fill="white"/>
<path d="M259.105 176.695C259.078 176.69 219.878 176.699 213.752 176.695C213.411 176.535 211.434 177.738 210.494 173.264C210.304 166.816 224.898 170.917 239.01 169.832C251.416 169.926 268.11 167.729 259.105 176.695Z" fill="white"/>
<path d="M261.93 149.247C257.19 150.301 246.307 148.323 254.046 142.383C258.948 141.343 269.457 143.31 261.93 149.247Z" fill="white"/>
<path d="M234.324 162.971C231.782 161.598 206.336 167.137 210.971 157.515C212.344 154.178 227.075 156.912 233.34 156.108C235.258 154.809 239.471 160.835 234.324 162.971Z" fill="white"/>
<path d="M249.055 162.971C245.192 163.822 238.441 161.939 243.409 156.283C248.369 153.939 255.528 159.003 249.055 162.971Z" fill="white"/>
<path d="M282.444 149.247C277.704 150.301 266.821 148.323 274.56 142.383C279.462 141.343 289.971 143.31 282.444 149.247Z" fill="white"/>
<path d="M279.428 202.999C279.406 202.992 231.658 203.004 219.006 202.999C207.607 205.006 208.313 186.649 217.367 187.75C218.852 187.75 221.383 187.75 224.687 187.75H279.361C285.573 187.375 287.628 201.783 279.428 202.999Z" fill="#52AF7B"/>
<path d="M147.132 236.901C123.202 245.077 114.984 231.698 114.984 231.698C114.984 231.698 123.844 159.265 142.796 155.466C161.748 151.667 147.132 236.901 147.132 236.901Z" fill="#064E45"/>
<mask id="mask3_70_157" style="mask-type:luminance" maskUnits="userSpaceOnUse" x="114" y="155" width="39" height="85">
<path d="M147.132 236.901C123.202 245.077 114.984 231.698 114.984 231.698C114.984 231.698 123.844 159.265 142.796 155.466C161.748 151.667 147.132 236.901 147.132 236.901Z" fill="white"/>
</mask>
<g mask="url(#mask3_70_157)">
<path d="M141.825 181.393C129.924 170.149 138.757 220.182 131.855 240.06C124.953 259.937 150.53 262.804 150.53 262.804L156.733 204.325" fill="#00554B"/>
</g>
<path d="M56.7658 147.683C56.2509 139.665 70.2492 154.098 70.2492 154.098C70.2492 154.098 92.0107 150.623 95.3702 154.098C98.7297 157.573 131.669 203.546 131.669 203.546L108.057 209.479C108.057 209.479 87.6654 168.247 86.1563 166.361C84.9604 164.867 66.6202 160.449 65.819 159.946C65.0178 159.444 56.7658 147.683 56.7658 147.683Z" fill="#B2612C"/>
<mask id="mask4_70_157" style="mask-type:luminance" maskUnits="userSpaceOnUse" x="56" y="145" width="76" height="65">
<path d="M56.7658 147.683C56.2509 139.665 70.2492 154.098 70.2492 154.098C70.2492 154.098 92.0107 150.623 95.3702 154.098C98.7297 157.573 131.669 203.546 131.669 203.546L108.057 209.479C108.057 209.479 87.6654 168.247 86.1563 166.361C84.9604 164.867 66.6202 160.449 65.819 159.946C65.0178 159.444 56.7658 147.683 56.7658 147.683Z" fill="white"/>
</mask>
<g mask="url(#mask4_70_157)">
<path d="M92.0362 178.891C105.758 189.211 120.311 185.661 120.311 185.661C119.658 185.778 107.079 213.705 107.501 209.141C100.552 203.824 85.975 199.986 86.9155 191.039" fill="#00554B"/>
</g>
<path d="M148.863 283.17L232.019 279.768C231.533 279.14 208.238 157.036 202.062 153.652C195.666 147.42 155.837 141.3 142.222 161.49C131.633 194.39 148.918 282.738 148.863 283.17Z" fill="#064E45"/>
<mask id="mask5_70_157" style="mask-type:luminance" maskUnits="userSpaceOnUse" x="138" y="147" width="95" height="137">
<path d="M148.863 283.17L232.019 279.768C231.533 279.14 208.238 157.036 202.062 153.652C195.666 147.42 155.837 141.3 142.222 161.49C131.633 194.39 148.918 282.738 148.863 283.17Z" fill="white"/>
</mask>
<g mask="url(#mask5_70_157)">
<path d="M197.295 187.937C185.721 185.372 228.745 263.944 158.578 270.538C130.159 272.628 142.065 300 142.065 300L249.45 293.713L258.192 244.873L205.446 187.048" fill="#00554B"/>
</g>
<path d="M151.581 124.325L158.759 164.856L176.414 148.04L165.543 114.486L151.581 124.325Z" fill="#B2612C"/>
<mask id="mask6_70_157" style="mask-type:luminance" maskUnits="userSpaceOnUse" x="151" y="114" width="26" height="51">
<path d="M151.581 124.325L158.759 164.856L176.414 148.04L165.543 114.486L151.581 124.325Z" fill="white"/>
</mask>
<g mask="url(#mask6_70_157)">
<path d="M153.17 163.141C158.687 154.826 159.077 142.45 160.156 134.517C170.369 103.453 157.826 125.372 150.323 128.338" fill="#00554B"/>
</g>
<path d="M136.674 83.3552C132.022 106.489 131.647 165.276 162.364 127.598C167.718 83.3552 146.8 91.5759 136.674 83.3552Z" fill="#B2612C"/>
<path d="M163.531 116.551C157.963 119.42 150.635 103.403 153.974 98.5035C142.934 103.07 115.593 90.5644 123.121 75.3495C124.834 71.8863 127.701 69.9676 130.672 69.7697C141.671 69.037 158.67 67.3093 158.114 81.3408C177.47 68.1066 171.284 108.124 163.531 116.551Z" fill="black"/>
<path d="M161.078 128.972C177.112 114.852 166.533 89.7304 156.29 116.919Z" fill="#B2612C"/>
<path d="M247.173 266.486C225.705 180.779 238.646 199.313 206.506 197.445L220.125 249.821L172.931 269.516L168.24 271.03C168.24 271.03 160.798 260.874 158.4 261.854C156.002 262.835 142.314 277.869 142.314 277.869H167.694L167.27 283.17H239.746C245.768 283.17 249.278 275.287 247.173 266.486Z" fill="#B2612C"/>
<mask id="mask7_70_157" style="mask-type:luminance" maskUnits="userSpaceOnUse" x="142" y="196" width="106" height="88">
<path d="M247.173 266.486C225.705 180.779 238.646 199.313 206.506 197.445L220.125 249.821L172.931 269.516L168.24 271.03C168.24 271.03 160.798 260.874 158.4 261.854C156.002 262.835 142.314 277.869 142.314 277.869H167.694L167.27 283.17H239.746C245.768 283.17 249.278 275.287 247.173 266.486Z" fill="white"/>
</mask>
<g mask="url(#mask7_70_157)">
<path d="M211.869 248.758C211.869 248.758 212.403 240.134 220.125 249.821C227.846 259.508 230.265 262.517 208.276 251.123" fill="#00554B"/>
</g>
<path d="M214.476 285.382H150.644L150.606 277.883C155.653 280.757 216.503 270.41 214.476 285.382Z" fill="#21A494"/>
<path d="M209.548 235.25C234.528 243.426 249.332 233.746 249.332 233.746C225.341 150.434 168.407 101.067 209.548 235.25Z" fill="#064E45"/>
<path d="M166.475 279.819C123.834 156.978 163.087 190.313 60.6443 185.66C52.3652 186.861 46.3564 182.33 46.6358 189.712L46.9342 189.345C90.0673 313.133 51.1149 278.708 154.44 285.233C160.915 284.079 165.925 289.39 166.475 279.819Z" fill="#52AF7B"/>
<path d="M163.102 285.382C60.5203 281.955 81.5022 301.34 64.0545 249.138C55.6735 217.717 41.9117 190.769 47.1164 187.096C154.941 190.832 127.833 168.423 150.36 233.497C158.12 262.31 169.523 282.355 163.102 285.382Z" fill="#52AF7B"/>
<mask id="mask8_70_157" style="mask-type:luminance" maskUnits="userSpaceOnUse" x="45" y="186" width="120" height="101">
<path d="M163.102 285.382C60.5203 281.955 81.5022 301.34 64.0545 249.138C55.6735 217.717 41.9117 190.769 47.1164 187.096C154.941 190.832 127.833 168.423 150.36 233.497C158.12 262.31 169.523 282.355 163.102 285.382Z" fill="white"/>
</mask>
<g mask="url(#mask8_70_157)">
<path d="M24.7881 294.862C4.76645 256.738 113.604 270.89 148.863 283.17C166.199 289.208 41.0303 298.636 41.0303 298.636" fill="#00554B"/>
</g>
<path d="M164.241 171.648C152.805 163.29 166.517 153.679 171.937 138.838C172.776 132.101 180.83 146.66 182.174 147.851L164.241 171.648Z" fill="#CBA2DE"/>
<path d="M154.955 171.648C162.692 164.547 157.268 156.628 154.982 143.635C154.713 139.992 152.82 143.688 150.339 150.072C145.95 155.842 154.001 166.242 154.955 171.648Z" fill="#CBA2DE"/>
<path d="M107.769 233.746C112.183 250.339 90.387 227.527 102.763 228.14C104.339 229.066 105.735 230.432 107.769 233.746Z" fill="white"/>
<path d="M163.067 110.175C164.922 112.514 164.62 117.454 165.259 116.84C165.876 116.247 168.618 107.756 163.067 110.175Z" fill="#00554B"/>
<path d="M136.073 102.938C133.582 120.79 127.268 114.154 128.249 120.136C129.126 125.479 148.622 123.82 150.096 128.663C151.57 133.506 138.524 105.442 138.524 105.442" fill="#B2612C"/>
<path d="M139.058 108.459C140.594 111.332 139.342 119.795 137.198 116.844C135.054 113.892 137.344 105.251 139.058 108.459Z" fill="#00554B"/>
<path d="M136.357 107.79C141.284 104.144 142.308 110.668 142.308 110.668C142.308 110.668 134.091 109.468 136.357 107.79Z" fill="#00554B"/>
<path d="M140.896 100.076C147.473 102.613 144.749 105.494 138.607 104.005C132.465 102.516 137.062 98.5966 140.896 100.076Z" fill="#00554B"/>
<path d="M144.887 120.842C142.752 124.087 138.935 121.374 138.912 123.118C138.889 124.862 144.404 134.584 144.887 120.842Z" fill="#00554B"/>
<path d="M158.423 204.264C162.589 224.644 170.846 219.002 170.846 219.002Z" fill="#00554B"/>
<path d="M271.493 21.0136C271.479 21.037 189.749 20.9968 177.954 21.0136C169.843 21.0029 169.408 28.0185 166.546 48.6904C163.353 73.144 158.318 87.882 167.726 87.6633C173.561 87.6633 204.043 87.6633 207.175 87.6633C208.485 87.1062 208.456 112.527 215.415 101.43C215.622 101.16 222.521 85.5947 221.858 87.6642C223.412 87.6626 240.542 87.6639 251.899 87.6633C274.999 92.4924 268.64 67.5445 275.705 32.8665C276.323 31.4021 277.239 21.5586 271.493 21.0136Z" fill="#07B8AA"/>
<mask id="mask9_70_157" style="mask-type:luminance" maskUnits="userSpaceOnUse" x="162" y="21" width="115" height="84">
<path d="M271.493 21.0136C271.479 21.037 189.749 20.9968 177.954 21.0136C169.843 21.0029 169.408 28.0185 166.546 48.6904C163.353 73.144 158.318 87.882 167.726 87.6633C173.561 87.6633 204.043 87.6633 207.175 87.6633C208.485 87.1062 208.456 112.527 215.415 101.43C215.622 101.16 222.521 85.5947 221.858 87.6642C223.412 87.6626 240.542 87.6639 251.899 87.6633C274.999 92.4924 268.64 67.5445 275.705 32.8665C276.323 31.4021 277.239 21.5586 271.493 21.0136Z" fill="white"/>
</mask>
<g mask="url(#mask9_70_157)">
<path d="M264.126 2.7444L149.437 123.72L299.999 120.599L289.522 7.05354L256.15 1.90735e-06" fill="#07B8AA"/>
<path d="M168.833 28.6655C170.773 25.8089 212.812 21.0072 211.001 21.0094C209.19 21.0117 175.818 16.9746 175.818 16.9746L169.35 21.8308" fill="#00554B"/>
</g>
<g opacity="0.38">
<path d="M262.318 40.9233C262.289 40.927 214.834 40.9207 191.909 40.9233C182.997 41.5604 178.581 38.6966 177.102 44.4625C174.841 51.421 199.865 46.7129 221.461 48.0039C243 47.0146 271.778 52.0176 262.318 40.9233Z" fill="white"/>
<path d="M214.092 55.7343C211.648 57.1567 173.982 52.0945 174.93 59.2738C173.948 65.7536 186.107 61.7935 197.173 62.8144C208.931 62.0816 214.435 65.229 215.842 59.2738C216.129 57.319 215.345 55.7343 214.092 55.7343Z" fill="white"/>
<path d="M227.285 55.7343C224.766 56.0684 220.454 54.1402 219.413 59.2738C218.666 64.6977 228.605 64.2144 229.036 59.2738C229.322 57.319 228.538 55.7343 227.285 55.7343Z" fill="white"/>
<path d="M251.1 55.7343C248.249 56.856 231.517 52.6135 231.034 59.2738C229.022 65.2002 254.104 64.3486 252.85 59.2738C253.137 57.319 252.353 55.7343 251.1 55.7343Z" fill="white"/>
</g>
</g>
</g>
<defs>
<clipPath id="clip0_70_157">
<rect width="300" height="300" fill="white"/>
</clipPath>
</defs>
</svg>
