<svg width="200" height="201" viewBox="0 0 200 201" fill="none" xmlns="http://www.w3.org/2000/svg">
<g clip-path="url(#clip0_71_264)">
<mask id="mask0_71_264" style="mask-type:luminance" maskUnits="userSpaceOnUse" x="-7" y="-17" width="230" height="240">
<path d="M222.093 -16.4763H-6.83887V222.271H222.093V-16.4763Z" fill="white"/>
</mask>
<g mask="url(#mask0_71_264)">
<path d="M79.025 86.609H21.311C20.9914 86.6099 20.6748 86.522 20.3799 86.3504C20.085 86.1789 19.8178 85.9272 19.5938 85.6101C19.3698 85.293 19.1936 84.9169 19.0755 84.5039C18.9574 84.0909 18.8999 83.6492 18.9062 83.2048L19.3946 38.8698C19.4058 37.9642 19.6717 37.1007 20.1352 36.4644C20.5987 35.8281 21.2231 35.4695 21.8744 35.4656H79.5884C79.908 35.4647 80.2246 35.5526 80.5195 35.7242C80.8144 35.8957 81.0816 36.1474 81.3056 36.4645C81.5296 36.7816 81.7058 37.1577 81.8239 37.5707C81.942 37.9838 81.9995 38.4254 81.9932 38.8698L81.5048 83.2048C81.4936 84.1104 81.2277 84.9739 80.7642 85.6102C80.3007 86.2465 79.6763 86.6051 79.025 86.609Z" fill="black"/>
<mask id="mask1_71_264" style="mask-type:luminance" maskUnits="userSpaceOnUse" x="18" y="35" width="64" height="52">
<path d="M79.025 86.609H21.311C20.9914 86.6099 20.6748 86.522 20.3799 86.3504C20.085 86.1789 19.8178 85.9272 19.5938 85.6101C19.3698 85.293 19.1936 84.9169 19.0755 84.5039C18.9574 84.0909 18.8999 83.6492 18.9062 83.2048L19.3946 38.8698C19.4058 37.9642 19.6717 37.1007 20.1352 36.4644C20.5987 35.8281 21.2231 35.4695 21.8744 35.4656H79.5884C79.908 35.4647 80.2246 35.5526 80.5195 35.7242C80.8144 35.8957 81.0816 36.1474 81.3056 36.4645C81.5296 36.7816 81.7058 37.1577 81.8239 37.5707C81.942 37.9838 81.9995 38.4254 81.9932 38.8698L81.5048 83.2048C81.4936 84.1104 81.2277 84.9739 80.7642 85.6102C80.3007 86.2465 79.6763 86.6051 79.025 86.609Z" fill="white"/>
</mask>
<g mask="url(#mask1_71_264)">
<path d="M12.1058 98.3941L88.0497 28.2215L91.1499 91.1139L0 101.759" fill="black"/>
<path d="M58.5439 34.6653C56.9798 37.5392 84.4083 37.891 84.4083 37.891L70.7205 28.3537" fill="#00554B"/>
</g>
<path d="M67.9723 54.9499C66.4127 54.2645 55.6527 57.0081 56.9431 52.2801C57.7066 49.4081 63.3925 51.4591 67.1936 50.891C68.7415 50.0922 70.9626 53.6999 67.9723 54.9499Z" fill="white"/>
<path opacity="0.34" d="M73.8161 71.1829C72.8299 70.3556 51.6682 73.9218 57.6998 67.2285C58.6617 66.6045 71.5836 67.4061 73.7584 67.124C74.7844 66.6192 76.5056 70.3826 73.8161 71.1829Z" fill="white"/>
<path opacity="0.34" d="M64.8762 63.0664C63.3322 62.5031 55.9423 64.8853 56.854 60.3965C57.4921 57.6856 62.2149 59.4834 64.6922 59.0077C66.0866 58.4943 67.4213 62.365 64.8762 63.0664Z" fill="white"/>
<path d="M37.2145 46.9158L37.2676 42.0988C29.7517 42.0988 23.5654 50.5779 23.4502 61.0373H26.9115C26.9974 53.2382 31.6103 46.9158 37.2145 46.9158Z" fill="white"/>
<path d="M26.9113 61.0373H23.45C23.3862 65.8752 24.6809 70.5571 27.0594 74.0891L29.6027 70.7695C27.8292 68.1358 26.8637 64.6447 26.9113 61.0373Z" fill="white"/>
<path opacity="0.34" d="M47.0582 47.9855C45.805 46.121 44.2887 44.636 42.6041 43.6231C40.9195 42.6102 39.1028 42.0913 37.2674 42.0988L37.2144 46.9157C42.6465 46.9188 47.2871 53.1068 47.2063 61.0373H50.6676C50.7314 56.1994 49.4367 51.5175 47.0582 47.9855Z" fill="white"/>
<path d="M47.2064 61.0373C46.9554 74.3767 35.4291 79.506 29.6027 70.7693C29.5758 70.7404 27.1607 74.0035 27.0596 74.0891C35.8031 86.6277 50.3862 77.7257 50.6678 61.0373H47.2064Z" fill="white"/>
<path opacity="0.34" d="M41.1617 61.0373C39.9916 60.7468 32.4335 61.7746 31.7173 60.3178C28.9212 54.0765 37.4801 56.5944 40.8833 56.1214C42.718 55.5012 44.2215 60.2395 41.1617 61.0373Z" fill="white"/>
<path opacity="0.34" d="M43.704 65.6691C43.0014 65.1384 28.9356 66.9512 29.5098 64.535C29.6933 62.3959 33.7866 63.7626 38.1441 63.3989C41.8584 63.4101 46.4431 62.7735 43.704 65.6691Z" fill="white"/>
<path d="M193.767 86.609H137.053C135.627 86.609 134.472 88.2159 134.472 90.1981V140.671C134.472 142.653 135.627 144.26 137.053 144.26H193.767C195.193 144.26 196.348 142.653 196.348 140.671V90.1981C196.348 88.2159 195.193 86.609 193.767 86.609Z" fill="#EBF5FE"/>
<mask id="mask2_71_264" style="mask-type:luminance" maskUnits="userSpaceOnUse" x="134" y="86" width="63" height="59">
<path d="M193.767 86.609H137.053C135.627 86.609 134.472 88.2159 134.472 90.1981V140.671C134.472 142.653 135.627 144.26 137.053 144.26H193.767C195.193 144.26 196.348 142.653 196.348 140.671V90.1981C196.348 88.2159 195.193 86.609 193.767 86.609Z" fill="white"/>
</mask>
<g mask="url(#mask2_71_264)">
<path d="M132.852 142.72C139.066 142.037 171.771 142.39 169.481 144.26C167.192 146.13 127.292 149.541 127.292 149.541" fill="#00554B"/>
</g>
<path d="M161.718 99.9982C161.699 99.9918 145.523 100.003 142.459 99.9982C140.727 100.705 138.992 96.2417 142.016 95.4233C142.459 95.4237 146.271 95.4235 150.468 95.4236C157.796 95.2628 167.48 94.5669 161.718 99.9982Z" fill="white"/>
<path d="M172.737 118.297C172.718 118.293 146.586 118.299 142.502 118.297C142.274 118.19 140.956 118.992 140.329 116.009C140.203 111.711 149.932 114.444 159.34 113.721C167.611 113.784 178.74 112.32 172.737 118.297Z" fill="white"/>
<path d="M174.62 99.9982C171.46 100.7 164.205 99.3822 169.364 95.4222C172.632 94.7287 179.638 96.0397 174.62 99.9982Z" fill="white"/>
<path d="M156.216 109.147C154.521 108.232 137.557 111.925 140.647 105.51C141.563 103.286 151.383 105.108 155.56 104.572C156.838 103.706 159.647 107.723 156.216 109.147Z" fill="white"/>
<path d="M166.036 109.147C163.462 109.715 158.961 108.459 162.273 104.689C165.58 103.126 170.352 106.502 166.036 109.147Z" fill="white"/>
<path d="M188.296 99.9982C185.136 100.7 177.881 99.3822 183.04 95.4222C186.308 94.7287 193.314 96.0397 188.296 99.9982Z" fill="white"/>
<path d="M186.285 135.833C186.27 135.828 154.439 135.836 146.004 135.833C138.405 137.171 138.875 124.933 144.911 125.667C145.901 125.667 147.589 125.667 149.791 125.667H186.241C190.382 125.417 191.752 135.022 186.285 135.833Z" fill="#52AF7B"/>
<path d="M98.0883 158.434C82.1349 163.885 76.6562 154.965 76.6562 154.965C76.6562 154.965 82.5625 106.677 95.1974 104.144C107.832 101.611 98.0883 158.434 98.0883 158.434Z" fill="#064E45"/>
<mask id="mask3_71_264" style="mask-type:luminance" maskUnits="userSpaceOnUse" x="76" y="104" width="26" height="57">
<path d="M98.0883 158.434C82.1349 163.885 76.6562 154.965 76.6562 154.965C76.6562 154.965 82.5625 106.677 95.1974 104.144C107.832 101.611 98.0883 158.434 98.0883 158.434Z" fill="white"/>
</mask>
<g mask="url(#mask3_71_264)">
<path d="M94.5497 121.428C86.6161 113.933 92.5044 147.288 87.9032 160.54C83.302 173.792 100.353 175.703 100.353 175.703L104.489 136.717" fill="#00554B"/>
</g>
<path d="M37.8437 98.9555C37.5005 93.6098 46.8326 103.232 46.8326 103.232C46.8326 103.232 61.3403 100.916 63.58 103.232C65.8197 105.549 87.7793 136.197 87.7793 136.197L72.0378 140.153C72.0378 140.153 58.4434 112.664 57.4374 111.408C56.6401 110.411 44.4133 107.466 43.8792 107.131C43.3451 106.796 37.8437 98.9555 37.8437 98.9555Z" fill="#B2612C"/>
<mask id="mask4_71_264" style="mask-type:luminance" maskUnits="userSpaceOnUse" x="37" y="97" width="51" height="44">
<path d="M37.8437 98.9555C37.5005 93.6098 46.8326 103.232 46.8326 103.232C46.8326 103.232 61.3403 100.916 63.58 103.232C65.8197 105.549 87.7793 136.197 87.7793 136.197L72.0378 140.153C72.0378 140.153 58.4434 112.664 57.4374 111.408C56.6401 110.411 44.4133 107.466 43.8792 107.131C43.3451 106.796 37.8437 98.9555 37.8437 98.9555Z" fill="white"/>
</mask>
<g mask="url(#mask4_71_264)">
<path d="M61.3573 119.761C70.5052 126.641 80.2069 124.274 80.2069 124.274C79.7716 124.352 71.3858 142.97 71.6673 139.928C67.0342 136.383 57.3165 133.824 57.9435 127.859" fill="#00554B"/>
</g>
<path d="M99.2417 189.28L154.679 187.012C154.355 186.593 138.826 105.191 134.708 102.935C130.444 98.7798 103.891 94.7002 94.8147 108.16C87.7556 130.093 99.2784 188.992 99.2417 189.28Z" fill="#064E45"/>
<mask id="mask5_71_264" style="mask-type:luminance" maskUnits="userSpaceOnUse" x="92" y="98" width="63" height="92">
<path d="M99.2417 189.28L154.679 187.012C154.355 186.593 138.826 105.191 134.708 102.935C130.444 98.7798 103.891 94.7002 94.8147 108.16C87.7556 130.093 99.2784 188.992 99.2417 189.28Z" fill="white"/>
</mask>
<g mask="url(#mask5_71_264)">
<path d="M131.53 125.791C123.814 124.081 152.496 176.463 105.719 180.858C86.7729 182.252 94.7103 200.5 94.7103 200.5L166.3 196.309L172.128 163.748L136.964 125.199" fill="#00554B"/>
</g>
<path d="M101.054 83.3832L105.84 110.404L117.609 99.1934L110.362 76.8242L101.054 83.3832Z" fill="#B2612C"/>
<mask id="mask6_71_264" style="mask-type:luminance" maskUnits="userSpaceOnUse" x="101" y="76" width="17" height="35">
<path d="M101.054 83.3832L105.84 110.404L117.609 99.1934L110.362 76.8242L101.054 83.3832Z" fill="white"/>
</mask>
<g mask="url(#mask6_71_264)">
<path d="M102.113 109.261C105.792 103.718 106.052 95.4668 106.771 90.1779C113.58 69.469 105.218 84.0812 100.216 86.0584" fill="#00554B"/>
</g>
<path d="M91.1165 56.0701C88.0149 71.4928 87.7648 110.684 108.243 85.5656C111.813 56.0701 97.867 61.5506 91.1165 56.0701Z" fill="#B2612C"/>
<path d="M109.021 78.2006C105.309 80.1131 100.423 69.4351 102.649 66.169C95.2891 69.2134 77.0618 60.8763 82.0803 50.733C83.2227 48.4242 85.1338 47.1451 87.1144 47.0131C94.4473 46.5246 105.78 45.3728 105.409 54.7272C118.313 45.9044 114.189 72.5823 109.021 78.2006Z" fill="black"/>
<path d="M107.385 86.4815C118.074 77.0681 111.021 60.3203 104.193 78.4461Z" fill="#B2612C"/>
<path d="M164.782 178.157C150.47 121.019 159.097 133.375 137.67 132.13L146.75 167.047L115.287 180.177L112.16 181.187C112.16 181.187 107.198 174.416 105.6 175.069C104.001 175.723 94.876 185.746 94.876 185.746H111.795L111.513 189.28H159.831C163.845 189.28 166.185 184.025 164.782 178.157Z" fill="#B2612C"/>
<mask id="mask7_71_264" style="mask-type:luminance" maskUnits="userSpaceOnUse" x="94" y="131" width="72" height="59">
<path d="M164.782 178.157C150.47 121.019 159.097 133.375 137.67 132.13L146.75 167.047L115.287 180.177L112.16 181.187C112.16 181.187 107.198 174.416 105.6 175.069C104.001 175.723 94.876 185.746 94.876 185.746H111.795L111.513 189.28H159.831C163.845 189.28 166.185 184.025 164.782 178.157Z" fill="white"/>
</mask>
<g mask="url(#mask7_71_264)">
<path d="M141.246 166.338C141.246 166.338 141.602 160.589 146.75 167.047C151.898 173.505 153.51 175.512 138.851 167.915" fill="#00554B"/>
</g>
<path d="M142.984 190.754H100.43L100.404 185.756C103.769 187.671 144.335 180.774 142.984 190.754Z" fill="#21A494"/>
<path d="M139.699 157.333C156.352 162.784 166.221 156.331 166.221 156.331C150.227 100.789 112.271 67.8778 139.699 157.333Z" fill="#064E45"/>
<path d="M110.983 187.046C82.5564 105.152 108.725 127.375 40.4297 124.273C34.9103 125.074 30.9044 122.053 31.0907 126.975L31.2897 126.73C60.0451 209.255 34.0767 186.306 102.96 190.656C107.277 189.886 110.617 193.427 110.983 187.046Z" fill="#52AF7B"/>
<path d="M108.734 190.754C40.3467 188.47 54.3347 201.393 42.7028 166.592C37.1155 145.645 27.941 127.679 31.4108 125.231C103.294 127.721 85.2217 112.782 100.24 156.164C105.413 175.373 113.015 188.737 108.734 190.754Z" fill="#52AF7B"/>
<mask id="mask8_71_264" style="mask-type:luminance" maskUnits="userSpaceOnUse" x="30" y="124" width="80" height="68">
<path d="M108.734 190.754C40.3467 188.47 54.3347 201.393 42.7028 166.592C37.1155 145.645 27.941 127.679 31.4108 125.231C103.294 127.721 85.2217 112.782 100.24 156.164C105.413 175.373 113.015 188.737 108.734 190.754Z" fill="white"/>
</mask>
<g mask="url(#mask8_71_264)">
<path d="M16.5252 197.075C3.17747 171.658 75.7361 181.093 99.2419 189.28C110.799 193.305 27.3534 199.591 27.3534 199.591" fill="#00554B"/>
</g>
<path d="M109.494 114.932C101.87 109.36 111.011 102.953 114.625 93.0589C115.184 88.5674 120.553 98.2735 121.449 99.067L109.494 114.932Z" fill="#CBA2DE"/>
<path d="M103.303 114.932C108.462 110.198 104.846 104.919 103.321 96.2564C103.142 93.8283 101.88 96.292 100.226 100.548C97.3002 104.395 102.667 111.328 103.303 114.932Z" fill="#CBA2DE"/>
<path d="M71.8463 156.331C74.7891 167.392 60.2582 152.184 68.5087 152.593C69.5594 153.211 70.4899 154.122 71.8463 156.331Z" fill="white"/>
<path d="M108.711 73.9503C109.948 75.5096 109.747 78.8023 110.173 78.3933C110.584 77.9982 112.412 72.3377 108.711 73.9503Z" fill="#00554B"/>
<path d="M90.7158 69.1254C89.0549 81.0268 84.8455 76.6027 85.4996 80.5905C86.0839 84.1528 99.0815 83.0468 100.064 86.2753C101.047 89.5038 92.3492 70.7946 92.3492 70.7946" fill="#B2612C"/>
<path d="M92.7052 72.8058C93.729 74.7211 92.8944 80.3634 91.465 78.3957C90.0356 76.4281 91.5621 70.6675 92.7052 72.8058Z" fill="#00554B"/>
<path d="M90.9041 72.3603C94.1886 69.929 94.8711 74.279 94.8711 74.279C94.8711 74.279 89.3936 73.4783 90.9041 72.3603Z" fill="#00554B"/>
<path d="M93.9304 67.2172C98.3153 68.909 96.4988 70.8295 92.4043 69.8367C88.3098 68.8438 91.3744 66.2311 93.9304 67.2172Z" fill="#00554B"/>
<path d="M96.5915 81.0612C95.1677 83.2248 92.6233 81.4159 92.608 82.5785C92.5926 83.7411 96.269 90.2224 96.5915 81.0612Z" fill="#00554B"/>
<path d="M105.615 136.676C108.393 150.263 113.897 146.501 113.897 146.501Z" fill="#00554B"/>
<path d="M180.996 14.5091C180.986 14.5246 126.499 14.4979 118.636 14.5091C113.229 14.5019 112.939 19.179 111.031 32.9603C108.902 49.2627 105.546 59.088 111.818 58.9422C115.708 58.9422 136.029 58.9422 138.117 58.9422C138.99 58.5708 138.971 75.5182 143.61 68.1203C143.748 67.9399 148.347 57.5631 147.905 58.9428C148.942 58.9417 160.362 58.9426 167.933 58.9422C183.333 62.1616 179.094 45.5297 183.803 22.411C184.216 21.4347 184.826 14.8724 180.996 14.5091Z" fill="#07B8AA"/>
<mask id="mask9_71_264" style="mask-type:luminance" maskUnits="userSpaceOnUse" x="108" y="14" width="77" height="56">
<path d="M180.996 14.5091C180.986 14.5246 126.499 14.4979 118.636 14.5091C113.229 14.5019 112.939 19.179 111.031 32.9603C108.902 49.2627 105.546 59.088 111.818 58.9422C115.708 58.9422 136.029 58.9422 138.117 58.9422C138.99 58.5708 138.971 75.5182 143.61 68.1203C143.748 67.9399 148.347 57.5631 147.905 58.9428C148.942 58.9417 160.362 58.9426 167.933 58.9422C183.333 62.1616 179.094 45.5297 183.803 22.411C184.216 21.4347 184.826 14.8724 180.996 14.5091Z" fill="white"/>
</mask>
<g mask="url(#mask9_71_264)">
<path d="M176.085 2.3296L99.625 82.9803L200 80.8991L193.015 5.20236L170.767 0.5" fill="#07B8AA"/>
<path d="M112.556 19.6104C113.849 17.7059 141.875 14.5048 140.668 14.5063C139.46 14.5078 117.212 11.8164 117.212 11.8164L112.901 15.0539" fill="#00554B"/>
</g>
<g opacity="0.38">
<path d="M174.878 27.7822C174.859 27.7846 143.222 27.7804 127.939 27.7822C121.997 28.207 119.053 26.2977 118.067 30.1417C116.56 34.7807 133.243 31.6419 147.64 32.5026C161.999 31.8431 181.185 35.1784 174.878 27.7822Z" fill="white"/>
<path d="M142.728 37.6562C141.098 38.6044 115.988 35.2297 116.62 40.0159C115.965 44.3357 124.071 41.6956 131.449 42.3763C139.287 41.8877 142.956 43.986 143.895 40.0159C144.086 38.7127 143.563 37.6562 142.728 37.6562Z" fill="white"/>
<path d="M151.523 37.6562C149.844 37.8789 146.969 36.5935 146.275 40.0159C145.777 43.6318 152.403 43.3096 152.69 40.0159C152.881 38.7127 152.359 37.6562 151.523 37.6562Z" fill="white"/>
<path d="M167.399 37.6562C165.499 38.404 154.344 35.5757 154.022 40.0159C152.681 43.9668 169.402 43.3991 168.566 40.0159C168.757 38.7127 168.235 37.6562 167.399 37.6562Z" fill="white"/>
</g>
</g>
</g>
<defs>
<clipPath id="clip0_71_264">
<rect width="200" height="200" fill="white" transform="translate(0 0.5)"/>
</clipPath>
</defs>
</svg>
