<svg width="29" height="30" viewBox="0 0 29 30" fill="none" xmlns="http://www.w3.org/2000/svg">
<g clip-path="url(#clip0_30_59)">
<path d="M10.1028 1.6809C7.20529 2.68608 4.70645 4.59396 2.97336 7.12429C1.24026 9.65462 0.364262 12.674 0.474034 15.739C0.583806 18.804 1.67356 21.753 3.58323 24.1529C5.4929 26.5527 8.12182 28.277 11.0839 29.0723C13.4852 29.6919 16.0012 29.7192 18.4154 29.1516C20.6025 28.6603 22.6245 27.6095 24.2834 26.1021C26.01 24.4852 27.2632 22.4283 27.9084 20.1525C28.6094 17.6777 28.7342 15.0751 28.2732 12.5446H14.7882V18.1384H22.5978C22.4417 19.0306 22.1072 19.8821 21.6144 20.642C21.1215 21.4019 20.4804 22.0545 19.7295 22.5609C18.776 23.192 17.7009 23.6164 16.5735 23.807C15.4428 24.0173 14.283 24.0173 13.1524 23.807C12.0063 23.5703 10.9222 23.0973 9.96917 22.4182C8.43795 21.3343 7.2882 19.7944 6.68402 18.0183C6.06978 16.209 6.06978 14.2475 6.68402 12.4381C7.11409 11.1698 7.82506 10.0151 8.76386 9.06004C9.8382 7.94704 11.1983 7.15147 12.6951 6.7606C14.1918 6.36973 15.7673 6.39868 17.2486 6.84426C18.4059 7.19933 19.4642 7.82001 20.3389 8.65676C21.2195 7.78072 22.0986 6.90241 22.9761 6.02184C23.4293 5.54832 23.9232 5.09746 24.3695 4.61262C23.034 3.36996 21.4664 2.40296 19.7567 1.76699C16.643 0.636421 13.2362 0.606038 10.1028 1.6809Z" fill="white"/>
<path d="M10.1021 1.6809C13.2352 0.60531 16.642 0.634893 19.7559 1.76473C21.466 2.40502 23.0328 3.37668 24.3665 4.62395C23.9134 5.10879 23.4353 5.56192 22.9731 6.03317C22.0941 6.91072 21.2158 7.78525 20.3382 8.65676C19.4634 7.82002 18.4052 7.19934 17.2479 6.84426C15.767 6.39712 14.1916 6.3665 12.6945 6.75577C11.1974 7.14504 9.83638 7.93915 8.76086 9.05098C7.82206 10.006 7.11109 11.1608 6.68102 12.429L1.98438 8.7927C3.66549 5.45897 6.57623 2.90892 10.1021 1.6809Z" fill="#E33629"/>
<path d="M0.738939 12.395C0.991193 11.1439 1.4103 9.93229 1.98503 8.79269L6.68167 12.4381C6.06744 14.2475 6.06744 16.2089 6.68167 18.0183C5.11688 19.2267 3.55133 20.441 1.98503 21.6614C0.546702 18.7984 0.108036 15.5363 0.738939 12.395Z" fill="#F8BD00"/>
<path d="M14.7881 12.5423H28.2731C28.7341 15.0729 28.6094 17.6754 27.9084 20.1503C27.2632 22.4261 26.0099 24.483 24.2834 26.0998C22.7676 24.9172 21.2451 23.7436 19.7294 22.5609C20.4809 22.0541 21.1223 21.4007 21.6151 20.64C22.108 19.8793 22.4422 19.0269 22.5977 18.1339H14.7881C14.7859 16.2715 14.7881 14.4069 14.7881 12.5423Z" fill="#587DBD"/>
<path d="M1.98242 21.6615C3.54872 20.4531 5.11427 19.2388 6.67906 18.0183C7.28445 19.795 8.43584 21.335 9.96875 22.4182C10.9247 23.0942 12.0112 23.5633 13.1588 23.7957C14.2894 24.006 15.4492 24.006 16.5798 23.7957C17.7073 23.6051 18.7823 23.1806 19.7359 22.5496C21.2516 23.7322 22.7741 24.9058 24.2898 26.0885C22.6311 27.5968 20.6091 28.6484 18.4218 29.1403C16.0076 29.7078 13.4916 29.6806 11.0902 29.061C9.19097 28.5539 7.41692 27.6599 5.8793 26.4351C4.25196 25.1429 2.92274 23.5146 1.98242 21.6615Z" fill="#319F43"/>
</g>
<defs>
<clipPath id="clip0_30_59">
<rect width="29" height="29" fill="white" transform="translate(0 0.727081)"/>
</clipPath>
</defs>
</svg>
